<?xml version="1.0" encoding="UTF-8" standalone="no"?>
<!-- Generator: Adobe Illustrator 19.0.0, SVG Export Plug-In . SVG Version: 6.00 Build 0)  -->

<svg
   xmlns:dc="http://purl.org/dc/elements/1.1/"
   xmlns:cc="http://creativecommons.org/ns#"
   xmlns:rdf="http://www.w3.org/1999/02/22-rdf-syntax-ns#"
   xmlns:svg="http://www.w3.org/2000/svg"
   xmlns="http://www.w3.org/2000/svg"
   xmlns:sodipodi="http://sodipodi.sourceforge.net/DTD/sodipodi-0.dtd"
   xmlns:inkscape="http://www.inkscape.org/namespaces/inkscape"
   version="1.1"
   id="Capa_1"
   x="0px"
   y="0px"
   viewBox="0 0 512 512"
   style="enable-background:new 0 0 512 512;"
   xml:space="preserve"
   sodipodi:docname="pdftoword.svg"
   inkscape:version="0.92.2 (5c3e80d, 2017-08-06)"
   inkscape:export-filename="/home/foxoman/Desktop/pdftoword/pdftoword.png"
   inkscape:export-xdpi="375.58868"
   inkscape:export-ydpi="375.58868"><metadata
     id="metadata51"><rdf:RDF><cc:Work
         rdf:about=""><dc:format>image/svg+xml</dc:format><dc:type
           rdf:resource="http://purl.org/dc/dcmitype/StillImage" /></cc:Work></rdf:RDF></metadata><defs
     id="defs49" /><sodipodi:namedview
     pagecolor="#ffffff"
     bordercolor="#666666"
     borderopacity="1"
     objecttolerance="10"
     gridtolerance="10"
     guidetolerance="10"
     inkscape:pageopacity="0"
     inkscape:pageshadow="2"
     inkscape:window-width="1920"
     inkscape:window-height="988"
     id="namedview47"
     showgrid="false"
     inkscape:zoom="1.3037281"
     inkscape:cx="55.066301"
     inkscape:cy="280.82076"
     inkscape:window-x="0"
     inkscape:window-y="30"
     inkscape:window-maximized="1"
     inkscape:current-layer="Capa_1" /><g
     id="g16" /><g
     id="g18" /><g
     id="g20" /><g
     id="g22" /><g
     id="g24" /><g
     id="g26" /><g
     id="g28" /><g
     id="g30" /><g
     id="g32" /><g
     id="g34" /><g
     id="g36" /><g
     id="g38" /><g
     id="g40" /><g
     id="g42" /><g
     id="g44" /><g
     id="g267"
     transform="matrix(1,0,0,1.2455231,222.85852,52.993619)"
     style="fill:#ff8080"><g
       id="g209"
       style="fill:#ff8080"><path
         id="path203"
         d="m 38.658,0 h 164.23 l 87.049,86.711 v 203.227 c 0,10.679 -8.659,19.329 -19.329,19.329 H 38.658 c -10.67,0 -19.329,-8.65 -19.329,-19.329 V 19.329 C 19.329,8.65 27.989,0 38.658,0 Z"
         style="fill:#ff8080"
         inkscape:connector-curvature="0" /><path
         id="path205"
         d="m 289.658,86.981 h -67.372 c -10.67,0 -19.329,-8.659 -19.329,-19.329 V 0.193 Z"
         style="fill:#ff8080"
         inkscape:connector-curvature="0" /><path
         id="path207"
         d="m 217.434,146.544 c 3.238,0 4.823,-2.822 4.823,-5.557 0,-2.832 -1.653,-5.567 -4.823,-5.567 h -18.44 c -3.605,0 -5.615,2.986 -5.615,6.282 v 45.317 c 0,4.04 2.3,6.282 5.412,6.282 3.093,0 5.403,-2.242 5.403,-6.282 v -12.438 h 11.153 c 3.46,0 5.19,-2.832 5.19,-5.644 0,-2.754 -1.73,-5.49 -5.19,-5.49 h -11.153 v -16.903 c 0,0 13.24,0 13.24,0 z M 155.107,135.42 h -13.492 c -3.663,0 -6.263,2.513 -6.263,6.243 v 45.395 c 0,4.629 3.74,6.079 6.417,6.079 h 14.159 c 16.758,0 27.824,-11.027 27.824,-28.047 -0.009,-17.995 -10.427,-29.67 -28.645,-29.67 z m 0.648,46.526 h -8.225 v -35.334 h 7.413 c 11.221,0 16.101,7.529 16.101,17.918 0,9.723 -4.794,17.416 -15.289,17.416 z M 106.33,135.42 H 92.964 c -3.779,0 -5.886,2.493 -5.886,6.282 v 45.317 c 0,4.04 2.416,6.282 5.663,6.282 3.247,0 5.663,-2.242 5.663,-6.282 v -13.231 h 8.379 c 10.341,0 18.875,-7.326 18.875,-19.107 0.001,-11.529 -8.233,-19.261 -19.328,-19.261 z m -0.222,27.738 h -7.703 v -17.097 h 7.703 c 4.755,0 7.78,3.711 7.78,8.553 -0.01,4.833 -3.025,8.544 -7.78,8.544 z"
         style="fill:#ff8080"
         inkscape:connector-curvature="0" /></g><g
       id="g211"
       style="fill:#ff8080" /><g
       id="g213"
       style="fill:#ff8080" /><g
       id="g215"
       style="fill:#ff8080" /><g
       id="g217"
       style="fill:#ff8080" /><g
       id="g219"
       style="fill:#ff8080" /><g
       id="g221"
       style="fill:#ff8080" /><g
       id="g223"
       style="fill:#ff8080" /><g
       id="g225"
       style="fill:#ff8080" /><g
       id="g227"
       style="fill:#ff8080" /><g
       id="g229"
       style="fill:#ff8080" /><g
       id="g231"
       style="fill:#ff8080" /><g
       id="g233"
       style="fill:#ff8080" /><g
       id="g235"
       style="fill:#ff8080" /><g
       id="g237"
       style="fill:#ff8080" /><g
       id="g239"
       style="fill:#ff8080" /></g><g
     id="g351"
     transform="translate(0.5087044,-8.6785008)"
     inkscape:transform-center-x="-373.15254"
     inkscape:transform-center-y="-15.186441"
     inkscape:export-filename="/home/foxoman/Desktop/g351.png"
     inkscape:export-xdpi="300"
     inkscape:export-ydpi="300"
     style="fill:#8080ff"><g
       id="g273"
       style="fill:#8080ff"><path
         id="path269"
         d="m 294.656,13.014 c -2.531,-2.056 -5.863,-2.842 -9.045,-2.133 l -277.333,64 C 3.397,76.003 -0.047,80.369 0,85.377 v 362.667 c 0.002,5.263 3.843,9.739 9.045,10.539 l 277.333,42.667 c 5.823,0.895 11.269,-3.099 12.164,-8.921 0.082,-0.535 0.124,-1.076 0.124,-1.617 V 21.377 c 0.01,-3.253 -1.467,-6.332 -4.01,-8.363 z"
         style="fill:#8080ff"
         inkscape:connector-curvature="0" /><path
         id="path271"
         d="M 501.334,458.71 H 288 c -5.891,0 -10.667,-4.776 -10.667,-10.667 0,-5.891 4.776,-10.667 10.667,-10.667 H 490.667 V 74.71 H 288 c -5.891,0 -10.667,-4.776 -10.667,-10.667 0,-5.891 4.776,-10.666 10.667,-10.666 h 213.333 c 5.891,0 10.667,4.776 10.667,10.667 v 384 c 0,5.891 -4.775,10.666 -10.666,10.666 z"
         style="fill:#8080ff"
         inkscape:connector-curvature="0" /></g><path
       id="path275"
       d="m 181.334,352.044 c -4.753,-0.005 -8.928,-3.155 -10.24,-7.723 L 138.667,230.87 106.24,344.321 c -2.342,5.661 -8.83,8.352 -14.492,6.01 -2.722,-1.126 -4.884,-3.288 -6.01,-6.01 L 43.072,194.988 c -1.786,-5.614 1.318,-11.612 6.932,-13.398 5.614,-1.786 11.612,1.318 13.398,6.932 0.063,0.198 0.12,0.398 0.172,0.599 L 96,302.55 128.427,189.1 c 2.342,-5.661 8.83,-8.352 14.492,-6.01 2.722,1.126 4.884,3.288 6.01,6.01 l 32.405,113.451 32.427,-113.429 c 1.535,-5.614 7.331,-8.921 12.945,-7.386 0.08,0.022 0.159,0.045 0.239,0.068 5.66,1.622 8.935,7.523 7.317,13.184 l -42.667,149.333 c -1.314,4.576 -5.501,7.727 -10.261,7.723 z"
       style="fill:#8080ff"
       inkscape:connector-curvature="0" /><g
       id="g287"
       style="fill:#8080ff"><path
         id="path277"
         d="M 458.667,138.71 H 288 c -5.891,0 -10.667,-4.776 -10.667,-10.667 0,-5.891 4.776,-10.667 10.667,-10.667 h 170.667 c 5.891,0 10.667,4.776 10.667,10.667 0,5.892 -4.776,10.667 -10.667,10.667 z"
         style="fill:#8080ff"
         inkscape:connector-curvature="0" /><path
         id="path279"
         d="M 458.667,202.71 H 288 c -5.891,0 -10.667,-4.776 -10.667,-10.667 0,-5.891 4.776,-10.667 10.667,-10.667 h 170.667 c 5.891,0 10.667,4.776 10.667,10.667 0,5.891 -4.776,10.667 -10.667,10.667 z"
         style="fill:#8080ff"
         inkscape:connector-curvature="0" /><path
         id="path281"
         d="M 458.667,266.71 H 288 c -5.891,0 -10.667,-4.776 -10.667,-10.667 0,-5.891 4.776,-10.667 10.667,-10.667 h 170.667 c 5.891,0 10.667,4.776 10.667,10.667 0,5.892 -4.776,10.667 -10.667,10.667 z"
         style="fill:#8080ff"
         inkscape:connector-curvature="0" /><path
         id="path283"
         d="M 458.667,330.71 H 288 c -5.891,0 -10.667,-4.776 -10.667,-10.667 0,-5.891 4.776,-10.667 10.667,-10.667 h 170.667 c 5.891,0 10.667,4.776 10.667,10.667 0,5.892 -4.776,10.667 -10.667,10.667 z"
         style="fill:#8080ff"
         inkscape:connector-curvature="0" /><path
         id="path285"
         d="M 458.667,394.71 H 288 c -5.891,0 -10.667,-4.776 -10.667,-10.667 0,-5.891 4.776,-10.667 10.667,-10.667 h 170.667 c 5.891,0 10.667,4.776 10.667,10.667 0,5.892 -4.776,10.667 -10.667,10.667 z"
         style="fill:#8080ff"
         inkscape:connector-curvature="0" /></g><g
       id="g289"
       style="fill:#8080ff" /><g
       id="g291"
       style="fill:#8080ff" /><g
       id="g293"
       style="fill:#8080ff" /><g
       id="g295"
       style="fill:#8080ff" /><g
       id="g297"
       style="fill:#8080ff" /><g
       id="g299"
       style="fill:#8080ff" /><g
       id="g301"
       style="fill:#8080ff" /><g
       id="g303"
       style="fill:#8080ff" /><g
       id="g305"
       style="fill:#8080ff" /><g
       id="g307"
       style="fill:#8080ff" /><g
       id="g309"
       style="fill:#8080ff" /><g
       id="g311"
       style="fill:#8080ff" /><g
       id="g313"
       style="fill:#8080ff" /><g
       id="g315"
       style="fill:#8080ff" /><g
       id="g317"
       style="fill:#8080ff" /></g><g
     id="svgg"
     transform="matrix(0.47453587,0,0,0.46201161,178.9579,190.90745)"
     style="fill:#e3dedb"
     inkscape:export-xdpi="375.58868"
     inkscape:export-ydpi="375.58868"><path
       d="m 168.596,52.854 0.105,9.941 h 94.094 94.095 l 0.105,-9.941 0.105,-9.941 H 262.795 168.49 l 0.106,9.941 m 0,26.378 0.105,9.941 h 94.094 94.095 l 0.105,-9.941 0.105,-9.941 H 262.795 168.49 l 0.106,9.941 m 99.908,23.327 c 0,0.325 -0.177,0.591 -0.394,0.591 -0.216,0 -0.393,0.443 -0.393,0.984 0,0.612 -0.224,0.984 -0.591,0.984 -0.325,0 -0.591,0.266 -0.591,0.591 0,0.324 -0.173,0.59 -0.386,0.59 -0.212,0 -0.497,0.443 -0.633,0.984 -0.136,0.542 -0.405,0.985 -0.598,0.985 -0.193,0 -0.351,0.443 -0.351,0.984 0,0.612 -0.223,0.984 -0.591,0.984 -0.393,0 -0.59,0.394 -0.59,1.181 0,0.65 -0.202,1.181 -0.449,1.181 -0.662,0 -1.493,1.249 -1.507,2.264 -0.007,0.52 -0.257,0.886 -0.603,0.886 -0.368,0 -0.591,0.372 -0.591,0.984 0,0.613 -0.223,0.985 -0.59,0.985 -0.325,0 -0.591,0.265 -0.591,0.59 0,0.325 -0.177,0.591 -0.394,0.591 -0.216,0 -0.393,0.443 -0.393,0.984 0,0.612 -0.223,0.984 -0.591,0.984 -0.325,0 -0.59,0.345 -0.59,0.767 0,0.422 -0.443,1.245 -0.985,1.829 -0.541,0.585 -0.984,1.479 -0.984,1.989 0,0.562 -0.233,0.927 -0.59,0.927 -0.368,0 -0.591,0.372 -0.591,0.984 0,0.613 -0.223,0.984 -0.591,0.984 -0.367,0 -0.59,0.372 -0.59,0.985 0,0.541 -0.177,0.984 -0.394,0.984 -0.216,0 -0.393,0.266 -0.393,0.591 0,0.324 -0.266,0.59 -0.591,0.59 -0.368,0 -0.591,0.372 -0.591,0.984 0,0.613 -0.223,0.985 -0.59,0.985 -0.394,0 -0.591,0.393 -0.591,1.181 0,0.787 -0.197,1.181 -0.59,1.181 -0.325,0 -0.591,0.266 -0.591,0.59 0,0.325 -0.177,0.591 -0.394,0.591 -0.216,0 -0.393,0.443 -0.393,0.984 0,0.613 -0.223,0.984 -0.591,0.984 -0.367,0 -0.59,0.372 -0.59,0.985 0,0.612 -0.223,0.984 -0.591,0.984 -0.367,0 -0.59,0.372 -0.59,0.984 0,0.541 -0.178,0.984 -0.394,0.984 -0.217,0 -0.394,0.266 -0.394,0.591 0,0.325 -0.266,0.59 -0.59,0.59 -0.361,0 -0.591,0.368 -0.591,0.943 0,0.518 -0.266,1.044 -0.59,1.168 -0.325,0.125 -0.591,0.675 -0.591,1.224 0,0.548 -0.177,0.996 -0.394,0.996 -0.216,0 -0.393,0.266 -0.393,0.591 0,0.325 -0.266,0.59 -0.591,0.59 -0.36,0 -0.591,0.367 -0.591,0.942 0,0.519 -0.265,1.045 -0.59,1.169 -0.325,0.125 -0.591,0.587 -0.591,1.027 0,0.439 -0.177,0.799 -0.393,0.799 -0.217,0 -0.394,0.266 -0.394,0.591 0,0.325 -0.266,0.59 -0.591,0.59 -0.36,0 -0.59,0.368 -0.59,0.943 0,0.518 -0.266,1.044 -0.591,1.168 -0.324,0.125 -0.59,0.587 -0.59,1.027 0,0.78 0.216,0.799 9.055,0.799 h 9.055 v 97.245 c 0,86.176 -0.067,97.244 -0.591,97.244 -0.426,0 -0.59,0.437 -0.59,1.574 0,0.867 -0.177,1.575 -0.394,1.575 -0.216,0 -0.393,0.266 -0.393,0.591 0,0.325 -0.266,0.59 -0.591,0.59 -0.368,0 -0.591,0.372 -0.591,0.985 0,0.612 -0.223,0.984 -0.59,0.984 -0.325,0 -0.591,0.266 -0.591,0.59 0,0.325 -0.19,0.591 -0.422,0.591 -0.545,0 -1.546,1.002 -1.546,1.547 0,0.232 -0.266,0.421 -0.591,0.421 -0.325,0 -0.59,0.266 -0.59,0.591 0,0.367 -0.372,0.591 -0.985,0.591 -0.541,0 -0.984,0.177 -0.984,0.393 0,0.217 -0.332,0.394 -0.739,0.394 -0.407,0 -0.96,0.266 -1.229,0.59 -0.434,0.523 -12.028,0.591 -100.006,0.591 -88.096,0 -99.542,-0.068 -99.743,-0.591 -0.125,-0.324 -0.675,-0.59 -1.223,-0.59 -0.548,0 -0.997,-0.177 -0.997,-0.394 0,-0.216 -0.424,-0.393 -0.942,-0.393 -0.518,0 -1.044,-0.266 -1.169,-0.591 -0.124,-0.325 -0.675,-0.591 -1.223,-0.591 -0.548,0 -0.997,-0.189 -0.997,-0.421 0,-0.752 -1.099,-1.547 -2.137,-1.547 -0.637,0 -1.012,-0.219 -1.012,-0.591 0,-0.324 -0.177,-0.59 -0.394,-0.59 -0.216,0 -0.394,-0.266 -0.394,-0.591 0,-0.325 -0.265,-0.59 -0.59,-0.59 -0.368,0 -0.591,-0.372 -0.591,-0.985 0,-0.612 -0.223,-0.984 -0.59,-0.984 -0.325,0 -0.591,-0.266 -0.591,-0.59 0,-0.325 -0.177,-0.591 -0.393,-0.591 -0.217,0 -0.394,-0.443 -0.394,-0.984 0,-0.613 -0.223,-0.984 -0.591,-0.984 -0.446,0 -0.59,-0.483 -0.59,-1.981 0,-1.398 -0.174,-2.048 -0.591,-2.208 -0.899,-0.345 -0.899,-190.3 0,-190.3 0.446,0 0.591,-0.481 0.591,-1.968 0,-1.487 0.144,-1.969 0.59,-1.969 0.325,0 0.591,-0.265 0.591,-0.59 0,-0.325 0.177,-0.591 0.394,-0.591 0.216,0 0.393,-0.443 0.393,-0.984 0,-0.612 0.223,-0.984 0.591,-0.984 0.325,0 0.59,-0.266 0.59,-0.591 0,-0.325 0.266,-0.59 0.591,-0.59 0.325,0 0.59,-0.266 0.59,-0.591 0,-0.367 0.372,-0.59 0.985,-0.59 0.541,0 0.984,-0.178 0.984,-0.394 0,-0.217 0.266,-0.394 0.591,-0.394 0.324,0 0.59,-0.266 0.59,-0.59 0,-0.368 0.372,-0.591 0.984,-0.591 0.613,0 0.985,-0.223 0.985,-0.59 0,-0.394 0.393,-0.591 1.181,-0.591 0.649,0 1.181,-0.177 1.181,-0.394 0,-0.216 0.611,-0.393 1.358,-0.393 0.795,0 1.495,-0.244 1.687,-0.588 0.286,-0.51 3.774,-0.601 26.496,-0.689 l 26.167,-0.101 0.103,-16.241 0.103,-16.24 H 62.996 c -28.787,0 -32.681,0.071 -32.681,0.591 0,0.453 -0.503,0.59 -2.165,0.59 -1.191,0 -2.166,0.178 -2.166,0.394 0,0.217 -0.625,0.394 -1.39,0.394 -0.873,0 -1.475,0.22 -1.617,0.59 -0.125,0.325 -0.656,0.591 -1.181,0.591 -0.525,0 -1.057,0.266 -1.181,0.59 -0.125,0.325 -0.651,0.591 -1.169,0.591 -0.518,0 -0.942,0.177 -0.942,0.394 0,0.216 -0.36,0.393 -0.8,0.393 -0.44,0 -0.902,0.266 -1.026,0.591 -0.125,0.325 -0.474,0.591 -0.775,0.591 -0.302,0 -0.549,0.265 -0.549,0.59 0,0.341 -0.356,0.591 -0.84,0.591 -0.463,0 -1.252,0.443 -1.753,0.984 -0.502,0.541 -1.098,0.984 -1.325,0.984 -0.227,0 -0.412,0.19 -0.412,0.422 0,0.545 -1.002,1.547 -1.547,1.547 -0.232,0 -0.422,0.265 -0.422,0.59 0,0.325 -0.266,0.591 -0.59,0.591 -0.325,0 -0.591,0.265 -0.591,0.59 0,0.325 -0.177,0.591 -0.394,0.591 -0.216,0 -0.393,0.266 -0.393,0.59 0,0.325 -0.266,0.591 -0.591,0.591 -0.367,0 -0.59,0.372 -0.59,0.984 0,0.613 -0.224,0.984 -0.591,0.984 -0.325,0 -0.591,0.266 -0.591,0.591 0,0.325 -0.177,0.591 -0.393,0.591 -0.217,0 -0.394,0.442 -0.394,0.984 0,0.612 -0.223,0.984 -0.591,0.984 -0.36,0 -0.59,0.367 -0.59,0.942 0,0.518 -0.266,1.044 -0.591,1.169 -0.37,0.142 -0.59,0.744 -0.59,1.617 0,0.765 -0.177,1.39 -0.394,1.39 -0.216,0 -0.394,0.709 -0.394,1.575 0,0.866 -0.177,1.575 -0.393,1.575 C 0.132,139.764 0,178.018 0,253.74 c 0,75.722 0.132,113.977 0.394,113.977 0.216,0 0.393,0.708 0.393,1.574 0,0.866 0.178,1.575 0.394,1.575 0.217,0 0.394,0.532 0.394,1.181 0,0.788 0.197,1.181 0.59,1.181 0.368,0 0.591,0.372 0.591,0.985 0,0.612 0.223,0.984 0.59,0.984 0.368,0 0.591,0.372 0.591,0.984 0,0.541 0.177,0.984 0.394,0.984 0.216,0 0.393,0.404 0.393,0.897 0,0.879 1.204,2.253 1.973,2.253 0.214,0 0.39,0.266 0.39,0.591 0,0.324 0.177,0.59 0.393,0.59 0.217,0 0.394,0.266 0.394,0.591 0,0.324 0.266,0.59 0.591,0.59 0.324,0 0.59,0.266 0.59,0.591 0,0.325 0.19,0.59 0.422,0.59 0.545,0 1.547,1.002 1.547,1.547 0,0.232 0.246,0.422 0.548,0.422 0.302,0 0.65,0.266 0.775,0.59 0.125,0.325 0.587,0.591 1.026,0.591 0.44,0 0.8,0.177 0.8,0.394 0,0.216 0.266,0.393 0.591,0.393 0.325,0 0.59,0.266 0.59,0.591 0,0.36 0.367,0.59 0.942,0.59 0.519,0 1.045,0.266 1.169,0.591 0.125,0.325 0.675,0.59 1.223,0.59 0.549,0 0.997,0.178 0.997,0.394 0,0.217 0.443,0.394 0.984,0.394 0.613,0 0.985,0.223 0.985,0.59 0,0.417 0.421,0.591 1.433,0.591 0.91,0 1.616,0.251 1.936,0.689 0.478,0.653 6.548,0.689 117.89,0.689 111.342,0 117.413,-0.036 117.89,-0.689 0.321,-0.438 1.027,-0.689 1.937,-0.689 1.012,0 1.433,-0.174 1.433,-0.591 0,-0.393 0.394,-0.59 1.181,-0.59 0.65,0 1.181,-0.177 1.181,-0.394 0,-0.216 0.36,-0.394 0.8,-0.394 0.44,0 0.902,-0.265 1.027,-0.59 0.124,-0.325 0.473,-0.591 0.775,-0.591 0.301,0 0.548,-0.265 0.548,-0.59 0,-0.368 0.372,-0.591 0.984,-0.591 0.542,0 0.985,-0.177 0.985,-0.393 0,-0.217 0.265,-0.394 0.59,-0.394 0.325,0 0.591,-0.266 0.591,-0.591 0,-0.331 0.351,-0.59 0.799,-0.59 0.44,0 0.902,-0.266 1.027,-0.591 0.124,-0.325 0.398,-0.59 0.608,-0.59 0.52,0 2.684,-2.198 2.684,-2.726 0,-0.233 0.266,-0.424 0.59,-0.424 0.325,0 0.591,-0.247 0.591,-0.548 0,-0.302 0.266,-0.651 0.59,-0.775 0.325,-0.125 0.591,-0.587 0.591,-1.027 0,-0.44 0.177,-0.8 0.394,-0.8 0.216,0 0.393,-0.265 0.393,-0.59 0,-0.325 0.266,-0.591 0.591,-0.591 0.367,0 0.59,-0.371 0.59,-0.984 0,-0.612 0.224,-0.984 0.591,-0.984 0.367,0 0.591,-0.372 0.591,-0.984 0,-0.542 0.177,-0.985 0.393,-0.985 0.217,0 0.394,-0.708 0.394,-1.574 0,-1.138 0.164,-1.575 0.591,-1.575 0.423,0 0.59,-0.433 0.59,-1.533 0,-0.999 0.206,-1.612 0.591,-1.759 0.522,-0.201 0.59,-12.14 0.59,-104.176 v -103.95 h 8.465 8.464 v -0.984 c 0,-0.612 -0.223,-0.984 -0.59,-0.984 -0.368,0 -0.591,-0.372 -0.591,-0.984 0,-0.613 -0.223,-0.985 -0.59,-0.985 -0.325,0 -0.591,-0.265 -0.591,-0.59 0,-0.325 -0.177,-0.591 -0.394,-0.591 -0.216,0 -0.393,-0.443 -0.393,-0.984 0,-0.612 -0.223,-0.984 -0.591,-0.984 -0.367,0 -0.59,-0.372 -0.59,-0.984 0,-0.613 -0.223,-0.985 -0.591,-0.985 -0.325,0 -0.591,-0.265 -0.591,-0.59 0,-0.325 -0.177,-0.591 -0.393,-0.591 -0.217,0 -0.394,-0.448 -0.394,-0.996 0,-0.549 -0.266,-1.099 -0.59,-1.224 -0.325,-0.124 -0.591,-0.65 -0.591,-1.168 0,-0.575 -0.23,-0.943 -0.591,-0.943 -0.367,0 -0.59,-0.371 -0.59,-0.984 0,-0.541 -0.177,-0.984 -0.394,-0.984 -0.216,0 -0.394,-0.266 -0.394,-0.591 0,-0.324 -0.265,-0.59 -0.59,-0.59 -0.368,0 -0.591,-0.372 -0.591,-0.984 0,-0.613 -0.223,-0.985 -0.59,-0.985 -0.368,0 -0.591,-0.371 -0.591,-0.984 0,-0.541 -0.177,-0.984 -0.393,-0.984 -0.217,0 -0.394,-0.266 -0.394,-0.591 0,-0.324 -0.266,-0.59 -0.591,-0.59 -0.393,0 -0.59,-0.394 -0.59,-1.181 0,-0.788 -0.197,-1.181 -0.591,-1.181 -0.367,0 -0.59,-0.372 -0.59,-0.985 0,-0.541 -0.177,-0.984 -0.394,-0.984 -0.217,0 -0.394,-0.266 -0.394,-0.59 0,-0.325 -0.265,-0.591 -0.59,-0.591 -0.368,0 -0.591,-0.372 -0.591,-0.984 0,-0.613 -0.223,-0.985 -0.59,-0.985 -0.368,0 -0.591,-0.371 -0.591,-0.984 0,-0.612 -0.223,-0.984 -0.59,-0.984 -0.358,0 -0.591,-0.365 -0.591,-0.927 0,-0.51 -0.443,-1.404 -0.984,-1.989 -0.542,-0.584 -0.985,-1.407 -0.985,-1.829 0,-0.422 -0.265,-0.767 -0.59,-0.767 -0.368,0 -0.591,-0.372 -0.591,-0.984 0,-0.541 -0.177,-0.984 -0.393,-0.984 -0.217,0 -0.394,-0.266 -0.394,-0.591 0,-0.325 -0.266,-0.59 -0.591,-0.59 -0.367,0 -0.59,-0.372 -0.59,-0.985 0,-0.612 -0.223,-0.984 -0.591,-0.984 -0.393,0 -0.59,-0.394 -0.59,-1.181 0,-0.65 -0.177,-1.181 -0.394,-1.181 -0.216,0 -0.394,-0.36 -0.394,-0.8 0,-0.44 -0.265,-0.902 -0.59,-1.026 -0.325,-0.125 -0.591,-0.474 -0.591,-0.775 0,-0.302 -0.265,-0.549 -0.59,-0.549 -0.368,0 -0.591,-0.372 -0.591,-0.984 0,-0.541 -0.177,-0.984 -0.394,-0.984 -0.216,0 -0.393,-0.36 -0.393,-0.8 0,-0.44 -0.266,-0.902 -0.591,-1.026 -0.325,-0.125 -0.59,-0.474 -0.59,-0.775 0,-0.302 -0.266,-0.549 -0.591,-0.549 -0.367,0 -0.59,-0.372 -0.59,-0.984 0,-0.541 -0.178,-0.984 -0.394,-0.984 -0.217,0 -0.394,-0.266 -0.394,-0.591 0,-0.394 -0.394,-0.59 -1.181,-0.59 -0.787,0 -1.181,0.196 -1.181,0.59"
       id="path0"
       inkscape:connector-curvature="0"
       style="fill:#e3dedb;fill-rule:evenodd;stroke:none" /><path
       d=""
       id="path1"
       inkscape:connector-curvature="0"
       style="fill:#e3dedb;fill-rule:evenodd;stroke:none" /><path
       d=""
       id="path2"
       inkscape:connector-curvature="0"
       style="fill:#e3dedb;fill-rule:evenodd;stroke:none" /><path
       d="m 147.244,0.394 c 0,0.216 -0.709,0.393 -1.575,0.393 -0.866,0 -1.575,0.178 -1.575,0.394 0,0.217 -0.518,0.394 -1.152,0.394 -0.635,0 -1.419,0.266 -1.744,0.59 -0.325,0.325 -0.958,0.591 -1.406,0.591 -0.463,0 -0.816,0.256 -0.816,0.59 0,0.347 -0.366,0.596 -0.885,0.604 -0.983,0.013 -2.264,0.838 -2.264,1.458 0,0.219 -0.543,0.508 -1.207,0.641 -0.671,0.134 -1.098,0.418 -0.961,0.639 0.135,0.219 -0.03,0.399 -0.368,0.399 -0.338,0 -0.614,0.177 -0.614,0.393 0,0.217 -0.266,0.394 -0.59,0.394 -0.325,0 -0.591,0.266 -0.591,0.591 0,0.324 -0.266,0.59 -0.59,0.59 -0.325,0 -0.591,0.19 -0.591,0.422 0,0.545 -1.002,1.547 -1.547,1.547 -0.232,0 -0.422,0.265 -0.422,0.59 0,0.325 -0.265,0.591 -0.59,0.591 -0.325,0 -0.591,0.191 -0.591,0.424 0,0.234 -0.708,1.086 -1.574,1.893 -0.867,0.808 -1.575,1.747 -1.575,2.087 0,0.339 -0.266,0.838 -0.591,1.108 -0.325,0.269 -0.59,0.822 -0.59,1.229 0,0.406 -0.178,0.739 -0.394,0.739 -0.217,0 -0.394,0.266 -0.394,0.591 0,0.324 -0.228,0.59 -0.507,0.59 -0.287,0 -0.548,0.545 -0.603,1.262 -0.052,0.695 -0.356,1.55 -0.674,1.901 -0.318,0.352 -0.578,1.201 -0.578,1.888 0,0.687 -0.177,1.248 -0.394,1.248 -0.216,0 -0.393,0.892 -0.393,1.981 0,1.398 -0.174,2.048 -0.591,2.208 -0.523,0.2 -0.59,12.243 -0.59,105.105 v 104.88 h -8.465 -8.465 v 1.39 c 0,0.833 0.223,1.476 0.555,1.603 0.306,0.117 0.663,0.643 0.795,1.169 0.132,0.526 0.414,0.956 0.626,0.956 0.213,0 0.387,0.265 0.387,0.59 0,0.325 0.177,0.591 0.393,0.591 0.217,0 0.394,0.443 0.394,0.984 0,0.612 0.223,0.984 0.591,0.984 0.367,0 0.59,0.372 0.59,0.985 0,0.612 0.223,0.984 0.591,0.984 0.346,0 0.595,0.366 0.603,0.886 0.014,1.015 0.845,2.263 1.507,2.263 0.247,0 0.449,0.449 0.449,0.997 0,0.548 0.265,1.099 0.59,1.223 0.325,0.125 0.591,0.651 0.591,1.169 0,0.518 0.177,0.942 0.394,0.942 0.216,0 0.393,0.36 0.393,0.8 0,0.44 0.266,0.902 0.591,1.026 0.325,0.125 0.59,0.474 0.59,0.775 0,0.302 0.266,0.549 0.591,0.549 0.394,0 0.59,0.393 0.59,1.181 0,0.649 0.158,1.181 0.351,1.181 0.194,0 0.463,0.443 0.598,0.984 0.136,0.542 0.421,0.984 0.634,0.984 0.212,0 0.386,0.266 0.386,0.591 0,0.325 0.266,0.591 0.59,0.591 0.368,0 0.591,0.371 0.591,0.984 0,0.541 0.158,0.984 0.351,0.984 0.193,0 0.462,0.443 0.598,0.984 0.136,0.542 0.421,0.985 0.633,0.985 0.213,0 0.387,0.362 0.387,0.806 0,0.443 0.442,1.216 0.984,1.718 0.541,0.502 0.984,1.296 0.984,1.765 0,0.469 0.266,0.955 0.591,1.08 0.324,0.125 0.59,0.568 0.59,0.984 0,0.417 0.266,0.86 0.591,0.984 0.324,0.125 0.59,0.651 0.59,1.169 0,0.518 0.177,0.942 0.394,0.942 0.216,0 0.394,0.266 0.394,0.591 0,0.325 0.265,0.59 0.59,0.59 0.37,0 0.591,0.374 0.591,0.997 0,0.548 0.265,1.099 0.59,1.223 0.325,0.125 0.591,0.651 0.591,1.169 0,0.575 0.23,0.942 0.59,0.942 0.341,0 0.591,0.356 0.591,0.841 0,0.462 0.443,1.251 0.984,1.753 0.542,0.501 0.984,1.275 0.984,1.718 0,0.454 0.258,0.806 0.591,0.806 0.364,0 0.591,0.37 0.591,0.961 0,0.529 0.177,1.071 0.393,1.205 0.217,0.133 0.394,0.568 0.394,0.965 0,0.397 0.266,0.824 0.591,0.949 0.324,0.124 0.59,0.498 0.59,0.829 0,0.332 0.266,0.603 0.591,0.603 0.367,0 0.59,0.372 0.59,0.984 0,0.863 0.171,0.985 1.378,0.985 1.207,0 1.378,-0.122 1.378,-0.985 0,-0.612 0.223,-0.984 0.591,-0.984 0.324,0 0.59,-0.271 0.59,-0.603 0,-0.331 0.266,-0.705 0.591,-0.829 0.325,-0.125 0.59,-0.541 0.59,-0.924 0,-0.383 0.266,-0.918 0.591,-1.187 0.325,-0.27 0.59,-0.823 0.59,-1.23 0,-0.406 0.178,-0.739 0.394,-0.739 0.217,0 0.394,-0.443 0.394,-0.984 0,-0.541 0.224,-0.984 0.497,-0.984 0.472,0 1.126,-0.949 1.697,-2.461 0.143,-0.379 0.416,-0.689 0.608,-0.689 0.191,0 0.347,-0.424 0.347,-0.942 0,-0.518 0.266,-1.044 0.591,-1.169 0.325,-0.124 0.59,-0.675 0.59,-1.223 0,-0.623 0.222,-0.997 0.591,-0.997 0.325,0 0.591,-0.265 0.591,-0.59 0,-0.325 0.177,-0.591 0.393,-0.591 0.217,0 0.394,-0.424 0.394,-0.942 0,-0.518 0.266,-1.044 0.591,-1.169 0.324,-0.124 0.59,-0.567 0.59,-0.984 0,-0.416 0.266,-0.859 0.591,-0.984 0.324,-0.125 0.59,-0.633 0.59,-1.13 0,-0.504 0.435,-1.23 0.984,-1.642 0.563,-0.423 0.985,-1.137 0.985,-1.668 0,-0.564 0.232,-0.929 0.59,-0.929 0.368,0 0.591,-0.372 0.591,-0.985 0,-0.541 0.177,-0.984 0.394,-0.984 0.216,0 0.393,-0.266 0.393,-0.591 0,-0.324 0.266,-0.59 0.591,-0.59 0.367,0 0.59,-0.372 0.59,-0.984 0,-0.542 0.174,-0.985 0.387,-0.985 0.212,0 0.497,-0.442 0.633,-0.984 0.136,-0.541 0.405,-0.984 0.598,-0.984 0.193,0 0.351,-0.532 0.351,-1.181 0,-0.788 0.197,-1.181 0.59,-1.181 0.325,0 0.591,-0.247 0.591,-0.549 0,-0.301 0.266,-0.65 0.59,-0.775 0.325,-0.124 0.591,-0.586 0.591,-1.026 0,-0.44 0.177,-0.8 0.394,-0.8 0.216,0 0.393,-0.443 0.393,-0.984 0,-0.613 0.224,-0.984 0.591,-0.984 0.394,0 0.591,-0.394 0.591,-1.181 0,-0.65 0.201,-1.182 0.448,-1.182 0.662,0 1.493,-1.248 1.508,-2.263 0.007,-0.52 0.256,-0.886 0.603,-0.886 0.367,0 0.59,-0.372 0.59,-0.984 0,-0.613 0.223,-0.985 0.591,-0.985 0.332,0 0.59,-0.352 0.59,-0.806 0,-0.443 0.443,-1.217 0.984,-1.718 0.542,-0.502 0.985,-1.296 0.985,-1.765 0,-0.47 0.265,-0.956 0.59,-1.08 0.365,-0.14 0.591,-0.738 0.591,-1.563 v -1.335 h -8.465 -8.464 V 142.52 c 0,-87.577 0.067,-98.819 0.59,-98.819 0.427,0 0.591,-0.438 0.591,-1.575 0,-0.866 0.177,-1.575 0.394,-1.575 0.216,0 0.393,-0.443 0.393,-0.984 0,-0.612 0.223,-0.984 0.591,-0.984 0.393,0 0.59,-0.394 0.59,-1.181 0,-0.65 0.202,-1.182 0.449,-1.182 0.662,0 1.493,-1.248 1.507,-2.263 0.007,-0.488 0.204,-0.886 0.437,-0.886 0.551,0 2.725,-2.175 2.725,-2.726 0,-0.233 0.456,-0.424 1.013,-0.424 0.557,0 1.28,-0.267 1.606,-0.594 0.327,-0.327 0.759,-0.493 0.959,-0.369 0.201,0.124 0.471,-0.051 0.601,-0.39 0.164,-0.427 0.758,-0.615 1.938,-0.615 0.987,0 1.949,-0.248 2.292,-0.591 0.899,-0.899 190.41,-0.899 190.41,0 0,0.446 0.482,0.591 1.969,0.591 1.487,0 1.968,0.144 1.968,0.59 0,0.328 0.35,0.591 0.788,0.591 0.433,0 0.787,0.177 0.787,0.394 0,0.216 0.266,0.393 0.591,0.393 0.664,0 2.165,1.365 2.165,1.969 0,0.216 0.19,0.393 0.422,0.393 0.586,0 1.222,0.747 2.101,2.467 0.413,0.809 0.988,1.47 1.279,1.47 0.325,0 0.529,0.456 0.529,1.182 0,0.649 0.177,1.181 0.393,1.181 0.217,0 0.394,0.443 0.394,0.984 0,0.612 0.223,0.984 0.591,0.984 0.446,0 0.59,0.483 0.59,1.981 0,1.398 0.174,2.048 0.591,2.208 0.834,0.32 0.907,194.63 0.073,194.63 -0.34,0 -0.55,0.637 -0.613,1.867 -0.059,1.133 -0.32,1.993 -0.664,2.185 -0.313,0.175 -0.568,0.663 -0.568,1.086 0,0.422 -0.177,0.768 -0.394,0.768 -0.216,0 -0.393,0.271 -0.393,0.602 0,0.332 -0.266,0.705 -0.591,0.83 -0.325,0.125 -0.59,0.651 -0.59,1.169 0,0.518 -0.19,0.942 -0.422,0.942 -0.533,0 -1.547,0.997 -1.547,1.52 0,0.218 -0.487,0.452 -1.083,0.521 -0.608,0.07 -1.039,0.34 -0.984,0.616 0.054,0.271 -0.167,0.493 -0.492,0.493 -0.325,0 -0.59,0.177 -0.59,0.393 0,0.217 -0.626,0.394 -1.391,0.394 -0.872,0 -1.474,0.22 -1.617,0.59 -0.198,0.518 -3.691,0.591 -28.137,0.591 h -27.911 v 14.173 14.173 h 34.646 c 30.534,0 34.646,-0.07 34.646,-0.59 0,-0.464 0.544,-0.591 2.536,-0.591 1.394,0 2.645,-0.177 2.779,-0.393 0.134,-0.217 0.675,-0.394 1.204,-0.394 0.592,0 0.961,-0.227 0.961,-0.591 0,-0.367 0.372,-0.59 0.984,-0.59 0.613,0 0.985,-0.223 0.985,-0.591 0,-0.393 0.393,-0.59 1.181,-0.59 0.649,0 1.181,-0.177 1.181,-0.394 0,-0.216 0.443,-0.394 0.984,-0.394 0.612,0 0.984,-0.223 0.984,-0.59 0,-0.325 0.266,-0.591 0.591,-0.591 0.325,0 0.59,-0.265 0.59,-0.59 0,-0.325 0.19,-0.591 0.422,-0.591 0.545,0 1.547,-1.001 1.547,-1.547 0,-0.232 0.266,-0.421 0.59,-0.421 0.325,0 0.591,-0.266 0.591,-0.591 0,-0.325 0.19,-0.59 0.422,-0.59 0.525,0 1.546,-0.994 1.546,-1.505 0,-0.209 0.266,-0.482 0.591,-0.606 0.325,-0.125 0.591,-0.568 0.591,-0.985 0,-0.416 0.265,-0.859 0.59,-0.984 0.325,-0.124 0.591,-0.498 0.591,-0.829 0,-0.332 0.177,-0.603 0.393,-0.603 0.217,0 0.394,-0.443 0.394,-0.985 0,-0.612 0.223,-0.984 0.591,-0.984 0.324,0 0.569,-0.133 0.544,-0.295 -0.18,-1.137 0.12,-2.838 0.486,-2.756 0.882,0.198 0.914,-3.376 1.043,-117.028 0.132,-116.098 0.102,-120.012 -0.924,-121.038 -0.307,-0.307 -0.559,-1.002 -0.559,-1.543 0,-0.541 -0.266,-1.25 -0.59,-1.575 -0.325,-0.325 -0.591,-0.831 -0.591,-1.126 0,-0.807 -1.438,-3.463 -1.721,-3.18 -0.136,0.136 -0.247,-0.137 -0.247,-0.606 0,-0.496 -0.248,-0.853 -0.591,-0.853 -0.335,0 -0.591,-0.353 -0.591,-0.817 0,-0.85 -1.983,-3.12 -2.725,-3.12 -0.233,0 -0.424,-0.266 -0.424,-0.59 0,-0.325 -0.177,-0.591 -0.394,-0.591 -0.216,0 -0.394,-0.266 -0.394,-0.59 0,-0.325 -0.265,-0.591 -0.59,-0.591 -0.325,0 -0.591,-0.177 -0.591,-0.394 0,-0.216 -0.265,-0.393 -0.59,-0.393 -0.325,0 -0.591,-0.266 -0.591,-0.591 0,-0.325 -0.247,-0.59 -0.548,-0.59 -0.302,0 -0.651,-0.266 -0.775,-0.591 -0.125,-0.325 -0.587,-0.591 -1.027,-0.591 -0.439,0 -0.799,-0.177 -0.799,-0.393 0,-0.217 -0.266,-0.394 -0.591,-0.394 -0.325,0 -0.59,-0.266 -0.59,-0.591 0,-0.367 -0.372,-0.59 -0.985,-0.59 -0.612,0 -0.984,-0.223 -0.984,-0.591 0,-0.363 -0.369,-0.59 -0.961,-0.59 -0.529,0 -1.07,-0.177 -1.204,-0.394 -0.134,-0.216 -1.119,-0.394 -2.189,-0.394 -1.07,0 -1.945,-0.177 -1.945,-0.393 C 375.197,0.132 336.942,0 261.22,0 185.499,0 147.244,0.132 147.244,0.394 M 47.118,305.272 c -0.716,1.866 -0.275,17.776 0.511,18.448 0.762,0.652 5.836,0.689 94.501,0.689 h 93.697 v -9.842 -9.843 h -94.249 c -80.148,0 -94.281,0.082 -94.46,0.548 m -0.029,26.453 c -0.717,1.87 -0.241,17.704 0.553,18.384 0.745,0.638 6.398,0.678 94.488,0.678 h 93.697 v -9.842 -9.843 h -94.249 c -85.58,0 -94.272,0.058 -94.489,0.623"
       id="path3"
       inkscape:connector-curvature="0"
       style="fill:#e3dedb;fill-rule:evenodd;stroke:none" /></g></svg>